<svg xmlns="http://www.w3.org/2000/svg" viewBox="0 0 512 512">
  <defs>
    <linearGradient id="g" x1="0" x2="1" y1="0" y2="1">
      <stop offset="0" stop-color="#14b8a6"/>
      <stop offset="1" stop-color="#7c3aed"/>
    </linearGradient>
  </defs>
  <rect width="512" height="512" rx="120" fill="#0f172a"/>
  <circle cx="256" cy="256" r="170" fill="url(#g)" opacity="0.9"/>
  <path d="M214 178v156c0 26-21 48-48 48s-48-21-48-48 21-48 48-48c9 0 17 2 24 6V156l190-32v146c0 26-21 48-48 48s-48-21-48-48 21-48 48-48c9 0 17 2 24 6V168l-142 24z" fill="#0b0f1a"/>
</svg>
