<?xml version="1.0" encoding="UTF-8"?>
<svg version="1.1" xmlns="http://www.w3.org/2000/svg" width="2607" height="3155">
<rect x="0" y="0" width="100%" height="100%" rx="560" ry="560" fill="#6D28D9"/>
<path d="M0 0 C69.3 0 138.6 0 210 0 C215.74701441 66.66536719 215.74701441 66.66536719 217.72955322 91.13209534 C217.96607285 94.03942837 218.20301849 96.94672665 218.43993759 99.85402715 C218.94481019 106.05209939 219.44869869 112.25025093 219.95184755 118.44846332 C220.70566954 127.73459824 221.46119156 137.02059439 222.21698646 146.30656892 C223.50776548 162.16611302 224.79725376 178.02576182 226.08599854 193.88547134 C227.38846064 209.91390543 228.69156533 225.94228709 229.99542236 241.97060776 C230.0783499 242.99003973 230.16127743 244.00947171 230.24671792 245.05979557 C230.66983026 250.26109448 231.09295352 255.46239251 231.51608115 260.66369018 C234.57370336 298.24973415 237.63002294 335.83588395 240.68566895 373.42208862 C243.7496635 411.11088684 246.81430547 448.79963233 249.87976074 486.48831177 C250.02434731 488.26595428 250.02434731 488.26595428 250.17185482 490.07950877 C251.34884826 504.55021447 252.52587051 519.02091783 253.70290434 533.49162024 C255.49648222 555.54225632 257.29001109 577.59289639 259.08353805 599.64353661 C259.38540988 603.35491717 259.68728259 607.06629765 259.98915544 610.77767812 C262.95622774 647.25643156 265.92303121 683.73520684 268.88966553 720.2139959 C278.69635865 840.80045004 288.50548327 961.38670595 301.96909001 1126.82182204 C302.25021135 1130.2760344 302.53133206 1133.73024681 302.81245258 1137.18445924 C306.93751776 1187.8703649 311.06272001 1238.55625941 315.18800683 1289.24214704 C315.28071722 1290.38124576 315.37342762 1291.52034448 315.46894742 1292.69396135 C315.65626328 1294.99544272 315.84357915 1297.29692409 316.03089504 1299.59840545 C320.35872488 1352.77287102 324.6862892 1405.9473582 329.01380114 1459.12184964 C329.48714758 1464.93811327 329.96049459 1470.75437686 330.43384159 1476.57064044 C330.62337841 1478.8995792 330.81291523 1481.22851795 331.00245205 1483.55745671 C331.0963101 1484.71073997 331.19016814 1485.86402322 331.28687038 1487.05225446 C331.76122865 1492.88094452 332.23558685 1498.70963459 332.70994502 1504.53832465 C332.80393608 1505.69324248 332.89792713 1506.8481603 332.9947664 1508.03807564 C333.46986886 1513.8759113 333.94497118 1519.71374697 334.42007323 1525.55158266 C337.27629843 1560.64756468 340.13254648 1595.74354484 342.98881531 1630.83952332 C343.13071051 1632.58303956 343.13071051 1632.58303956 343.27547228 1634.36177836 C344.33020861 1647.32169381 345.3849456 1660.2816092 346.43968284 1673.24152458 C348.37659976 1697.04108213 350.31351411 1720.84063989 352.25042725 1744.64019775 C352.395638 1746.42445521 352.395638 1746.42445521 352.5437823 1748.24475827 C357.33992208 1807.17667932 362.13603127 1866.10860286 366.93212891 1925.04052734 C367.03574297 1926.31368236 367.13935703 1927.58683738 367.2461109 1928.89857286 C372.15722475 1989.24375644 377.06832409 2049.58894119 381.97940063 2109.93412781 C382.0818245 2111.19266794 382.18424836 2112.45120808 382.28977597 2113.74788579 C384.44541079 2140.23539544 386.60104391 2166.72290524 388.75667458 2193.21041523 C389.76897565 2205.64915747 390.7812772 2218.08789967 391.7935791 2230.52664185 C391.9429136 2232.36160171 391.9429136 2232.36160171 392.09526495 2234.23363147 C394.83572366 2267.9072395 397.57620112 2301.58084601 400.31670311 2335.25445052 C400.97802049 2343.38031354 401.63933591 2351.50617672 402.30065048 2359.63203996 C402.67502701 2364.23216721 403.04940368 2368.83229445 403.42378044 2373.43242168 C403.51603205 2374.56595686 403.60828366 2375.69949203 403.70333077 2376.86737676 C404.81021118 2390.46808515 405.91710428 2404.06879251 407.02401567 2417.66949838 C408.02013973 2429.90895254 409.01625439 2442.14840747 410.01235962 2454.38786316 C410.10106711 2455.47783849 410.18977459 2456.56781382 410.28117018 2457.6908187 C412.72180195 2487.67964611 415.16205388 2517.6685044 417.6018939 2547.65739623 C419.10332179 2566.11193806 420.60484659 2584.566472 422.10640686 2603.02100305 C422.35145237 2606.03268442 422.59649435 2609.04436607 422.84153566 2612.05604778 C427.16756449 2665.22486416 431.49856028 2718.39327276 435.8356819 2771.56118542 C436.9422292 2785.12619191 438.04835056 2798.69123306 439.15406322 2812.2563076 C439.26023486 2813.55882235 439.26023486 2813.55882235 439.36855138 2814.88765053 C440.00024086 2822.63725787 440.63190698 2830.38686711 441.26348718 2838.13648336 C442.79177811 2856.888898 444.32111558 2875.64122609 445.85330022 2894.39332302 C446.88105667 2906.97210434 447.90718128 2919.55101783 448.93151872 2932.13007805 C449.47721665 2938.83069721 450.02377635 2945.53124324 450.5724647 2952.2316184 C451.06934844 2958.29942517 451.56404553 2964.36740593 452.05693673 2970.43553828 C452.2348737 2972.62123223 452.41363917 2974.80685892 452.59330411 2976.99241151 C452.83572538 2979.94275166 453.07518224 2982.89331771 453.31387234 2985.84396172 C453.41972556 2987.11898923 453.41972556 2987.11898923 453.52771723 2988.41977488 C453.59070342 2989.20600513 453.65368961 2989.99223538 453.71858448 2990.8022908 C453.77336523 2991.47342835 453.82814598 2992.14456591 453.88458675 2992.83604097 C454.02953494 2995.55376995 454 2998.2784084 454 3001 C413.41 3001 372.82 3001 331 3001 C328.70277208 2979.17633473 328.70277208 2979.17633473 327.94408607 2969.65592194 C327.85420137 2968.55189433 327.76431666 2967.44786672 327.67170817 2966.31038374 C327.37570609 2962.6679096 327.08293777 2959.02518343 326.79019165 2955.38244629 C326.5744746 2952.71955613 326.35857452 2950.05668137 326.1424526 2947.3938241 C325.67507252 2941.63068981 325.20937339 2935.86742168 324.74481583 2930.10405922 C324.05340863 2921.52648045 323.35932881 2912.94911936 322.66472436 2904.37179898 C321.49291873 2889.90085951 320.32323227 2875.42974949 319.15474319 2860.95854187 C317.99083786 2846.5442364 316.82590846 2832.13001426 315.65967941 2817.71589661 C315.58669566 2816.81384269 315.51371191 2815.91178878 315.43851653 2814.9823999 C315.06751668 2810.39704357 314.69649788 2805.81168878 314.32547109 2801.22633463 C311.69419092 2768.70718703 309.06495878 2736.18787414 306.43701172 2703.66845703 C303.91434469 2672.45192335 301.39106893 2641.23543901 298.86669922 2610.01904297 C298.78968001 2609.06661698 298.7126608 2608.11419099 298.63330768 2607.13290361 C296.85808043 2585.18034116 295.0826461 2563.22779546 293.30707359 2541.27526093 C293.15417449 2539.38486333 293.00127548 2537.49446574 292.84837656 2535.60406813 C292.69591117 2533.71903203 292.54344577 2531.83399593 292.39098036 2529.94895983 C292.31567715 2529.01793287 292.24037394 2528.08690591 292.16278882 2527.12766601 C291.78421635 2522.44711388 291.40563994 2517.76656207 291.0270559 2513.08601087 C289.28013969 2491.48827135 287.53377736 2469.8904872 285.78842368 2448.29262134 C284.28863044 2429.73345337 282.78842004 2411.17431915 281.28759766 2392.61523438 C281.18943119 2391.40129348 281.18943119 2391.40129348 281.08928156 2390.16282852 C275.10041446 2316.10521468 269.05780808 2242.05200319 263 2168 C262.55033371 2168.64797043 262.10066742 2169.29594086 261.63737488 2169.96354675 C259.56501066 2172.94889024 257.49149661 2175.93343338 255.41796875 2178.91796875 C254.71087769 2179.93693237 254.00378662 2180.955896 253.27526855 2182.0057373 C247.47385228 2190.35330292 241.55742744 2198.61096939 235.57666016 2206.83056641 C232.87551193 2210.54725937 230.18854247 2214.27418388 227.5 2218 C224.24141631 2222.51399593 220.98133325 2227.02687687 217.71484375 2231.53515625 C211.92671319 2239.52828893 206.18145662 2247.54809685 200.50830078 2255.62329102 C197.51008472 2259.8838881 194.47158095 2264.11170675 191.40087891 2268.3203125 C182.637909 2280.34548854 174.31998723 2292.66632864 166 2305 C162.06389029 2310.83427266 158.12704639 2316.66804719 154.1875 2322.5 C153.6893277 2323.23749481 153.1911554 2323.97498962 152.67788696 2324.73483276 C145.99652957 2334.62123413 139.26357481 2344.4615574 132.31396484 2354.16210938 C129.90262545 2357.53493787 127.51513461 2360.92462903 125.125 2364.3125 C124.38890503 2365.35482788 124.38890503 2365.35482788 123.63793945 2366.41821289 C119.14263252 2372.78747584 114.67405853 2379.17533895 110.20703125 2385.56445312 C106.52788388 2390.82442096 102.83299126 2396.07283765 99.125 2401.3125 C93.72987439 2408.93999739 88.39355504 2416.6078086 83.06298828 2424.28051758 C78.72116584 2430.52917271 74.36666482 2436.76868503 70 2443 C68.84761418 2444.64710598 67.69527078 2446.29424164 66.54296875 2447.94140625 C64.11440218 2451.41204374 61.67796122 2454.87701165 59.23828125 2458.33984375 C48.86633036 2473.10373269 38.93144104 2488.12777164 29.12304688 2503.26885986 C28.05336693 2504.91773661 26.9799066 2506.56415908 25.90625 2508.21044922 C8.37457466 2535.09434883 -7.76571659 2562.75888921 -23 2591 C-23.53141602 2591.97630371 -24.06283203 2592.95260742 -24.61035156 2593.95849609 C-64.54289087 2667.48405996 -90.69148551 2749.51757367 -103.80859375 2836.89453125 C-103.93236578 2837.74785223 -104.05613781 2838.60117321 -104.18366051 2839.4803524 C-108.18650377 2867.48581359 -110.54581846 2895.70792724 -113.16558897 2923.86901379 C-114.10643113 2933.9802369 -115.06048223 2944.09021773 -116.01683331 2954.19998455 C-116.08738629 2954.94581903 -116.15793927 2955.69165351 -116.23063022 2956.46008903 C-116.37122063 2957.94615017 -116.51184525 2959.43220809 -116.6525051 2960.91826266 C-117.06043758 2965.23183186 -117.46480395 2969.54571586 -117.86597311 2973.85991919 C-118.05403852 2975.87950681 -118.24322509 2977.89898584 -118.43286133 2979.91842651 C-118.66303463 2982.37115152 -118.89128367 2984.82405819 -119.11723328 2987.2771759 C-119.21932098 2988.35926331 -119.32140869 2989.44135071 -119.42658997 2990.55622864 C-119.51374173 2991.49260571 -119.6008935 2992.42898279 -119.69068623 2993.39373493 C-119.99388989 2995.94851648 -120.49544989 2998.47724944 -121 3001 C-161.59 3001 -202.18 3001 -244 3001 C-242.85140081 2980.32521449 -242.85140081 2980.32521449 -242.08744717 2971.06742191 C-242.00078261 2969.9941357 -241.91411805 2968.92084948 -241.82482729 2967.81503944 C-241.53760069 2964.26478358 -241.2471339 2960.71480087 -240.95664978 2957.16481018 C-240.74555832 2954.56409428 -240.53466898 2951.96336196 -240.32396209 2949.36261487 C-239.86594817 2943.71339561 -239.4062418 2938.06431611 -238.94540179 2932.41532671 C-238.25512822 2923.9538175 -237.56754459 2915.49209112 -236.88046532 2907.03032201 C-235.70862794 2892.59943312 -234.53462132 2878.16872145 -233.35942459 2863.73810577 C-232.17001499 2849.13285213 -230.98161467 2834.52751689 -229.79444504 2819.92208099 C-229.7194244 2818.99912898 -229.64440376 2818.07617697 -229.56710977 2817.12525671 C-229.18451102 2812.4182231 -228.80192881 2807.71118814 -228.41935253 2803.0041527 C-225.6457478 2768.87945743 -222.86991679 2734.75494355 -220.09292603 2700.63052368 C-217.30812633 2666.4100514 -214.52432711 2632.18949795 -211.74179077 2597.96884155 C-211.65455143 2596.89594503 -211.56731209 2595.82304851 -211.47742913 2594.71763998 C-210.59110808 2583.81737819 -209.70480583 2572.91711487 -208.81851611 2562.01685054 C-206.92893101 2538.77731173 -205.03920096 2515.53778471 -203.1493988 2492.29826355 C-203.05945447 2491.1921864 -202.96951014 2490.08610925 -202.87684022 2488.9465146 C-198.61413981 2436.52671682 -194.3498713 2384.10704662 -190.08545915 2331.68738806 C-184.34453191 2261.11785967 -178.60447045 2190.54826099 -172.86621094 2119.97851562 C-172.78422398 2118.97023247 -172.70223702 2117.96194931 -172.61776561 2116.92311212 C-170.64673317 2092.68316527 -168.67575353 2068.44321413 -166.70479925 2044.20326093 C-163.60179924 2006.04074938 -160.49868229 1967.87824734 -157.39554838 1929.71574668 C-157.15097215 1926.70793377 -156.90639632 1923.70012083 -156.66182062 1920.69230787 C-151.5619723 1857.97395083 -146.46162402 1795.25563446 -141.36083984 1732.53735352 C-141.27835874 1731.52318127 -141.19587764 1730.50900902 -141.11089711 1729.46410428 C-139.02017717 1703.75701032 -136.92943427 1678.04991823 -134.83868443 1652.34282671 C-131.63917276 1613.00280474 -128.43968682 1573.66278069 -125.24023438 1534.32275391 C-125.15624326 1533.29001083 -125.07225215 1532.25726776 -124.98571585 1531.19322944 C-116.22755949 1423.50412034 -107.47017709 1315.81494829 -95.46607971 1168.18913269 C-95.376844 1167.09170434 -95.28760829 1165.994276 -95.19566847 1164.86359224 C-93.48582072 1143.83573484 -91.77597895 1122.80787696 -90.06615365 1101.78001773 C-88.99016192 1088.54720263 -87.91416672 1075.3143878 -86.83816528 1062.08157349 C-86.74961354 1060.99255188 -86.6610618 1059.90353027 -86.56982668 1058.781508 C-83.8263508 1025.04189463 -81.08266811 991.30229808 -78.33883667 957.56271362 C-74.28325956 907.69318644 -70.22785185 857.82364549 -66.17278608 807.95407673 C-65.91815335 804.82258273 -65.66351964 801.69108881 -65.40888581 798.5595949 C-57.31237368 698.98830013 -49.21965661 599.4166987 -37.65408939 456.9205749 C-35.6386022 432.08657837 -33.62277051 407.25260982 -31.60665092 382.41866462 C-31.2444851 377.95760299 -30.88232516 373.49654089 -30.52016479 369.03547883 C-28.2470853 341.03591489 -28.2470853 341.03591489 -27.32056802 329.62364674 C-26.42044283 318.53645509 -25.52035582 307.44926033 -24.62033081 296.36206055 C-24.55265958 295.52843579 -24.48498835 294.69481104 -24.41526648 293.83592493 C-22.20403586 266.59607164 -19.99467205 239.35606727 -17.78624477 212.11598657 C-15.74919055 186.98982829 -13.71064676 161.86379131 -11.67019044 136.73790907 C-11.38285342 133.19966509 -11.09553672 129.66141946 -10.80823326 126.12317276 C-10.7520074 125.43073641 -10.69578154 124.73830006 -10.63785187 124.02488078 C-9.80461109 113.76271055 -8.97282119 103.50042342 -8.14191628 93.23806381 C-7.22553089 81.91997067 -6.30754242 70.60200919 -5.38725198 59.28423287 C-4.92630806 53.61483814 -4.46618766 47.9453798 -4.00830662 42.27573681 C-3.59382338 37.14361031 -3.17703213 32.01167687 -2.75833788 26.87989224 C-2.60807608 25.03306647 -2.45867956 23.18617005 -2.31022827 21.33919786 C-2.10954506 18.843892 -1.90574649 16.34885965 -1.70114708 13.8538723 C-1.61589487 12.77967997 -1.61589487 12.77967997 -1.52892039 11.68378678 C-1.20016751 7.72156024 -0.65647175 3.93883052 0 0 Z M104 242 C103.08843559 244.73469322 102.75774142 246.81637087 102.5262503 249.66191441 C102.44579648 250.6283239 102.36534266 251.59473339 102.28245085 252.59042802 C102.15500163 254.19088299 102.15500163 254.19088299 102.02497768 255.82367039 C101.93155997 256.95929781 101.83814227 258.09492523 101.74189372 259.2649656 C101.48140814 262.44095671 101.22431979 265.61720251 100.96860927 268.793581 C100.68932187 272.25251063 100.40568464 275.71108392 100.12259239 279.16970384 C99.62454348 285.26197304 99.12930925 291.3544661 98.63586688 297.44711006 C97.89720805 306.56730657 97.15422873 315.68714754 96.41037951 324.80692201 C95.14363571 340.33905607 93.88045083 355.87147775 92.61917305 371.40405655 C91.34246984 387.12640668 90.06413161 402.84862259 88.78376579 418.5706749 C88.70310526 419.56114429 88.62244473 420.55161369 88.53933993 421.57209731 C88.1281303 426.62143857 87.71689302 431.67077758 87.30564543 436.72011575 C84.32589016 473.30648203 81.34972604 509.89313972 78.37542725 546.47994995 C75.41272943 582.92388152 72.44842012 619.36768147 69.48199463 655.81130981 C69.38953459 656.94722247 69.29707454 658.08313512 69.20181268 659.25346937 C68.16901705 671.94179031 67.13617449 684.63010742 66.10331202 697.31842291 C64.19899823 720.71221247 62.29490105 744.10601965 60.39086914 767.49983215 C60.29582989 768.66752311 60.20079065 769.83521406 60.10287142 771.03828959 C57.08166087 808.15820476 54.06136571 845.27819435 51.04174805 882.39823914 C50.89552725 884.19572267 50.89552725 884.19572267 50.7463525 886.02951901 C49.76176915 898.1329595 48.77720037 910.23640117 47.79263839 922.3398434 C41.2784299 1002.42047288 34.76235824 1082.50095017 28.24169922 1162.58105469 C28.15324142 1163.66740381 28.06478361 1164.75375293 27.97364527 1165.87302173 C25.50329527 1196.21126995 23.0327144 1226.54949937 20.5620493 1256.88772193 C19.69126639 1267.58039614 18.82049814 1278.27307155 17.94973106 1288.96574706 C16.4812086 1306.9986172 15.01267928 1325.03148678 13.54414368 1343.06435585 C13.45913798 1344.1081828 13.37413228 1345.15200976 13.28655065 1346.22746783 C12.34651676 1357.77060363 11.40647704 1369.31373896 10.46642494 1380.85687327 C5.50864679 1441.73467037 0.5515779 1502.61252518 -4.40482517 1563.49043424 C-4.81724165 1568.55601045 -5.22965963 1573.62158654 -5.64207745 1578.68716264 C-6.78549794 1592.73138054 -7.92891652 1606.7755986 -9.07233214 1620.8198169 C-24.56327789 1811.09027904 -24.56327789 1811.09027904 -39.21586406 1990.95874462 C-39.58054728 1995.43490596 -39.94522736 1999.91106756 -40.30990696 2004.3872292 C-44.40391578 2054.63800668 -48.49804113 2104.88877466 -52.5930832 2155.13946795 C-52.89292367 2158.81884922 -53.19276082 2162.49823075 -53.4925971 2166.17761236 C-54.36192823 2176.84540523 -55.23127495 2187.51319683 -56.10070947 2198.18098127 C-57.86481781 2219.8264369 -59.62844347 2241.47193135 -61.38928539 2263.11765298 C-62.02722294 2270.95959833 -62.66529347 2278.80153287 -63.30339026 2286.64346527 C-63.45697771 2288.53103605 -63.61055637 2290.41860755 -63.76412606 2292.30617978 C-65.6677593 2315.70399241 -67.58116496 2339.10096042 -69.51209052 2362.49653688 C-69.91893561 2367.42699466 -70.32474387 2372.35753677 -70.72972584 2377.28814793 C-70.78439629 2377.95373526 -70.83906675 2378.61932259 -70.89539388 2379.30507924 C-71.1619652 2382.55095897 -71.42838899 2385.79685076 -71.69470006 2389.04275185 C-72.27867184 2396.15578794 -72.86778752 2403.26836947 -73.46152639 2410.38059664 C-73.80461148 2414.5045405 -74.14279444 2418.62887423 -74.47940707 2422.75335097 C-74.63163138 2424.60555229 -74.78598916 2426.45757975 -74.94268155 2428.30940843 C-75.15079456 2430.77130568 -75.3514939 2433.23369276 -75.55018616 2435.69636536 C-75.61196389 2436.40466592 -75.67374163 2437.11296648 -75.73739141 2437.8427307 C-75.98040119 2440.94823608 -75.99855508 2443.00433477 -75 2446 C-74.53327881 2445.20903931 -74.53327881 2445.20903931 -74.05712891 2444.40209961 C-72.58402865 2441.91134385 -71.10451085 2439.42445283 -69.625 2436.9375 C-69.13644531 2436.10927734 -68.64789063 2435.28105469 -68.14453125 2434.42773438 C-64.26902112 2427.92766992 -60.12591079 2421.62827737 -55.90869141 2415.34790039 C-52.5583915 2410.35346239 -49.26043267 2405.32496128 -45.9609375 2400.296875 C-44.70839878 2398.390582 -43.45579385 2396.4843325 -42.203125 2394.578125 C-40.28222195 2391.65449875 -38.36212449 2388.73035785 -36.44433594 2385.8046875 C-23.77757934 2366.4857908 -23.77757934 2366.4857908 -17.61572266 2358.19433594 C-15.11443159 2354.79729693 -12.810098 2351.27850058 -10.5 2347.75 C-3.19452835 2336.69813263 4.40351843 2325.85291999 12 2315 C13.21358033 2313.26434995 14.42712343 2311.52867387 15.640625 2309.79296875 C17.94736109 2306.49478869 20.25617512 2303.19807647 22.56640625 2299.90234375 C24.89126896 2296.58518586 27.21113243 2293.26461041 29.52734375 2289.94140625 C35.69370968 2281.10022597 41.91591488 2272.30595347 48.24414062 2263.57983398 C53.39852653 2256.46744065 58.46352039 2249.29379709 63.51611328 2242.10888672 C66.00648796 2238.56958819 68.503662 2235.03509356 71 2231.5 C72.00521488 2230.07552546 73.01042323 2228.6510463 74.015625 2227.2265625 C75.96140209 2224.4698341 77.90940513 2221.71470153 79.859375 2218.9609375 C91.07083751 2203.11977135 102.16635439 2187.19753931 113.09472656 2171.15966797 C115.85487542 2167.11473752 118.63394827 2163.084924 121.44921875 2159.078125 C134.15607544 2140.98207113 146.37660649 2122.56620424 158.58612061 2104.13256836 C159.84700866 2102.23075836 161.11037387 2100.33064065 162.37548828 2098.43164062 C185.77245445 2063.28365741 209.21473726 2025.87442907 221 1985 C221.21849609 1984.2560498 221.43699219 1983.51209961 221.66210938 1982.74560547 C228.10403813 1960.38304487 230.22038059 1937.64780274 231.25 1914.5 C231.29119965 1913.59105988 231.33239929 1912.68211975 231.37484741 1911.74563599 C232.01478134 1897.08835371 232.07386856 1882.44924666 232.01092529 1867.78009033 C231.99984266 1863.94556084 232.00584657 1860.11138367 232.01611328 1856.27685547 C232.08933423 1821.10856919 231.13657029 1786.12413236 228.39272714 1751.05898881 C228.0838265 1747.08641425 227.78354489 1743.1132024 227.48301607 1739.13998705 C226.43993316 1725.35154577 225.36879738 1711.56533383 224.29424429 1697.77931547 C223.89404921 1692.63915304 223.49560866 1687.4988552 223.09719586 1682.35855436 C219.96594358 1641.96131001 216.78919958 1601.56767377 213.60288882 1561.17473984 C212.57964148 1548.20268277 211.55760018 1535.23053105 210.53616333 1522.2583313 C203.03423837 1426.98775295 195.5063295 1331.71922723 174.4375 1065.4375 C174.37909607 1064.69963654 174.32069214 1063.96177308 174.26051839 1063.20155012 C170.60259527 1016.98812828 166.94429779 970.77473608 163.28585739 924.56135519 C163.10938056 922.33210151 162.93290388 920.10284783 162.75642723 917.87359414 C161.35100035 900.12023926 159.94556431 882.36688511 158.54011983 864.61353162 C157.90190496 856.55170159 157.2636915 848.48987145 156.62548031 840.42804113 C156.04973259 833.15524471 155.47398344 825.8824484 154.89823312 818.60965219 C154.7836708 817.16251722 154.66910853 815.71538225 154.55454629 814.26824728 C153.25614343 797.866997 151.95771556 781.4657487 150.65921021 765.06450653 C150.60423305 764.37009766 150.5492559 763.67568879 150.49261278 762.96023722 C150.43770446 762.26669778 150.38279614 761.57315834 150.32622394 760.85860256 C149.12304681 745.66143441 147.91989775 730.46426403 146.71679688 715.26708984 C146.66339631 714.59255162 146.60999575 713.91801339 146.55497699 713.22303461 C142.90717736 667.14511494 139.26131865 621.06704189 135.61740971 574.98881435 C135.23128483 570.10624069 134.84515282 565.2236676 134.45901489 560.34109497 C134.31687971 558.54383709 134.31687971 558.54383709 134.17187312 556.71027098 C132.68169535 537.86793794 131.1900065 519.02572486 129.69763921 500.18356512 C128.21372345 481.44774896 126.73141024 462.71180655 125.2506696 443.97573918 C124.46255188 434.00407042 123.67383274 424.03245041 122.88301849 414.0609951 C122.0922763 404.08958282 121.30340948 394.11802377 120.51693103 384.14627425 C120.37927528 382.40100857 120.24156061 380.65574753 120.10378507 378.9104913 C118.36596252 356.892194 116.68318221 334.87037299 115.05825806 312.84344482 C114.89542247 310.63916764 114.73258547 308.43489056 114.56974703 306.23061359 C113.85875221 296.59789649 113.15046034 286.96500409 112.45244554 277.33133692 C112.16787208 273.41262934 111.88032803 269.4941434 111.59213482 265.57570055 C111.45847404 263.74810728 111.32621659 261.92041078 111.19542946 260.09260961 C111.01653379 257.5935319 110.83297504 255.0948385 110.64830494 252.59618187 C110.57149687 251.49750909 110.57149687 251.49750909 110.49313713 250.37664089 C110.26810545 247.38850372 109.95266191 244.85798573 109 242 C107.35 242 105.7 242 104 242 Z " fill="#FFFFFF" transform="translate(321,77)"/>
<path d="M0 0 C21.78 0 43.56 0 66 0 C73.86568608 11.23669441 73.86568608 11.23669441 76.69140625 15.890625 C77.31861572 16.91816895 77.9458252 17.94571289 78.59204102 19.00439453 C79.56741821 20.61096924 79.56741821 20.61096924 80.5625 22.25 C81.97668056 24.56662952 83.39405842 26.88128989 84.8125 29.1953125 C85.16627213 29.77268158 85.52004425 30.35005066 85.88453674 30.94491577 C89.21864828 36.37596999 92.62861163 41.75666494 96.0625 47.125 C102.81936216 57.69303179 109.47290564 68.32351609 116.10888672 78.96777344 C119.23543421 83.98090536 122.36796466 88.99029558 125.5 94 C129.28669989 100.05763112 133.07260999 106.1157505 136.85546875 112.17578125 C143.02631358 122.05916687 149.21083887 131.93317407 155.44213867 141.77856445 C160.06497938 149.08861922 164.64749341 156.42369974 169.22265625 163.76367188 C175.11005118 173.20062594 181.06006952 182.59511007 187 192 C187.495 96.96 187.495 96.96 188 0 C207.14 0 226.28 0 246 0 C246 91.08 246 182.16 246 276 C223.89 276 201.78 276 179 276 C172.61007272 266.12465784 166.25121238 256.28194119 160.125 246.25 C158.7437043 243.99726416 157.36219107 241.74466169 155.98046875 239.4921875 C155.30806152 238.39487305 154.6356543 237.29755859 153.94287109 236.16699219 C151.1184512 231.5630245 148.28060966 226.9674443 145.4375 222.375 C144.91599365 221.53251709 144.3944873 220.69003418 143.85717773 219.82202148 C139.81956096 213.30695922 135.75497504 206.80894884 131.6875 200.3125 C125.01696223 189.65707776 118.42134295 178.95667344 111.83984375 168.24609375 C103.22917858 154.23366701 94.54654577 140.26726076 85.81860352 126.32763672 C80.29065568 117.48776863 74.82103155 108.6127307 69.3659668 99.7277832 C68.73730713 98.70386475 68.10864746 97.67994629 67.4609375 96.625 C66.63795166 95.28308594 66.63795166 95.28308594 65.79833984 93.9140625 C63.54741574 90.26662426 61.27161682 86.63458691 59 83 C58.67 146.69 58.34 210.38 58 276 C38.86 276 19.72 276 0 276 C0 184.92 0 93.84 0 0 Z " fill="#FFFFFF" transform="translate(2010,1339)"/>
<path d="M0 0 C126.04358354 0 126.04358354 0 146 6 C147.03664795 6.3091333 147.03664795 6.3091333 148.09423828 6.62451172 C165.69565512 12.02324866 180.77507648 20.12621678 194 33 C194.50257324 33.48871582 195.00514648 33.97743164 195.52294922 34.48095703 C221.20109442 59.93781229 230.75639229 95.75149392 232 131 C232.04125 132.13824219 232.0825 133.27648438 232.125 134.44921875 C232.82243918 174.07248226 223.3799253 212.5244391 195.66040039 241.79101562 C184.34072944 253.39856063 171.81433838 260.67700865 157 267 C156.12472656 267.38929688 155.24945312 267.77859375 154.34765625 268.1796875 C110.78719283 285.93418918 24.88110244 276 0 276 C0 184.92 0 93.84 0 0 Z M58 51 C58 108.42 58 165.84 58 225 C107.31575632 227.48349019 107.31575632 227.48349019 149.75 206.75 C163.71078743 191.75384317 170.04852049 169.48172664 170.23828125 149.33203125 C170.25038887 148.08059578 170.25038887 148.08059578 170.26274109 146.80387878 C170.27653362 145.03634686 170.28727724 143.26878884 170.29516602 141.5012207 C170.30657248 139.73193289 170.32683934 137.96267628 170.35668945 136.19360352 C170.7276921 114.13863609 167.05811077 93.27545977 154 75 C153.56300781 74.36578125 153.12601563 73.7315625 152.67578125 73.078125 C142.82401458 60.17911518 126.45256599 54.32380542 111 52 C93.37509325 50.74107809 75.66981104 51 58 51 Z " fill="#FFFFFF" transform="translate(2298,1339)"/>
<path d="M0 0 C18.81 0 37.62 0 57 0 C57.02505615 5.1370752 57.0501123 10.27415039 57.07592773 15.56689453 C57.15949913 32.5621776 57.24812546 49.55743156 57.33933926 66.55267525 C57.39450531 76.85427898 57.44795903 87.15588618 57.49731445 97.45751953 C57.54036089 106.44139753 57.58668863 115.42525175 57.63687855 124.40909278 C57.66331577 129.16141415 57.68816285 133.91373131 57.70907402 138.66608047 C57.72885268 143.14923008 57.7530552 147.63233511 57.78049088 152.11544418 C57.78975029 153.7511386 57.79746387 155.38684271 57.80341911 157.02255249 C57.61688821 187.75302461 57.61688821 187.75302461 71.1875 214.5 C81.15054513 224.20758243 93.65046549 227.83313037 107.3125 228.3125 C120.05798922 228.00384855 133.46764475 224.56421681 142.9375 215.625 C156.76812356 200.2501806 157.29486173 180.5821121 157.31884766 160.97900391 C157.32816793 159.21340995 157.33833965 157.44782032 157.34928894 155.68223572 C157.3763666 150.93322532 157.39167165 146.18424421 157.40471697 141.43517733 C157.42044583 136.45572367 157.44720445 131.47632897 157.4727478 126.49691772 C157.51936406 117.08738381 157.5561907 107.67783859 157.58942068 98.26824892 C157.62776393 87.54741443 157.67714176 76.82663942 157.72740483 66.10585523 C157.83046932 44.07060878 157.91835568 22.03533694 158 0 C177.14 0 196.28 0 216 0 C216.06793052 24.14947322 216.12310552 48.29886812 216.15543652 72.4484129 C216.1708527 83.66347888 216.1918409 94.87848093 216.22631836 106.09350586 C216.25638244 115.87765306 216.27561305 125.66175392 216.28226548 135.44594604 C216.28614916 140.61830089 216.29516458 145.79052326 216.31719017 150.96283531 C216.33782524 155.84902776 216.34378034 160.73503543 216.33932304 165.62126732 C216.34013635 167.39755768 216.34593883 169.17385541 216.35761642 170.95010757 C216.55592444 202.72112111 210.13283316 230.42118635 187.53125 253.5234375 C162.91923078 276.93681942 129.45641234 280.64465873 97.11572266 280.08886719 C69.24153466 279.29383471 42.68706075 268.89036946 23 249 C3.97431369 228.63794386 -0.33814587 202.57208417 -0.22705078 175.73730469 C-0.2264857 173.81437689 -0.22680511 171.89144866 -0.22793579 169.96852112 C-0.22850653 164.78134222 -0.21679758 159.59425697 -0.20278788 154.40709972 C-0.19023381 148.97389903 -0.18910634 143.54069587 -0.18673706 138.10748291 C-0.18053599 127.83368987 -0.16414383 117.55993969 -0.14403808 107.28616548 C-0.12163625 95.58357656 -0.1106749 83.88098553 -0.10064721 72.17838049 C-0.07977632 48.11889113 -0.04311731 24.05946049 0 0 Z " fill="#FFFFFF" transform="translate(1758,1339)"/>
<path d="M0 0 C22.77 0 45.54 0 69 0 C71.7047338 6.08565105 74.2332968 12.08692428 76.51171875 18.32421875 C76.99923363 19.64723495 76.99923363 19.64723495 77.49659729 20.99697876 C78.56299483 23.89281093 79.62522015 26.79015509 80.6875 29.6875 C81.44662403 31.75101149 82.20607027 33.81440446 82.96582031 35.87768555 C84.53947872 40.15205531 86.11176102 44.42692751 87.68310547 48.70214844 C89.835697 54.55641883 91.9959847 60.40781421 94.16015625 66.2578125 C94.6649073 67.62221214 94.6649073 67.62221214 95.17985535 69.01417542 C95.86057005 70.85407443 96.54131043 72.69396395 97.22207642 74.53384399 C104.45040588 94.07327415 111.65259994 113.6223217 118.85241699 133.17227173 C125.05976309 150.02689777 131.27720925 166.87773835 137.50738525 183.72393799 C141.88467184 195.56064851 146.25479305 207.3999811 150.6171875 219.2421875 C150.85666862 219.89228035 151.09614975 220.5423732 151.34288788 221.21216583 C153.94088049 228.26488413 156.5381017 235.31788616 159.13476562 242.37109375 C159.78688522 244.14203903 159.78688522 244.14203903 160.45217896 245.94876099 C161.26576176 248.15821811 162.07915011 250.36774685 162.89230347 252.57736206 C163.44133835 254.0682988 163.44133835 254.0682988 164.00146484 255.58935547 C164.3419989 256.5168158 164.68253296 257.44427612 165.03338623 258.39984131 C165.65371058 260.06849304 166.28559266 261.73291954 166.9319458 263.3916626 C168.10745819 266.4114054 169 268.72744998 169 272 C149.86 272 130.72 272 111 272 C108.30637271 265.26593178 105.71865449 258.56119142 103.328125 251.72265625 C102.83720367 250.3229081 102.83720367 250.3229081 102.33636475 248.8948822 C101.65290279 246.94327748 100.97064332 244.99125125 100.28955078 243.03881836 C99.24363404 240.04427375 98.19030838 237.05239919 97.13671875 234.06054688 C96.47090171 232.15640815 95.80552123 230.2521167 95.140625 228.34765625 C94.82506653 227.45393814 94.50950806 226.56022003 94.18438721 225.63941956 C93.89698669 224.81103073 93.60958618 223.98264191 93.31347656 223.12915039 C93.05906799 222.40208389 92.80465942 221.6750174 92.5425415 220.92591858 C92 219 92 219 92 216 C54.38 216 16.76 216 -22 216 C-22.99 219.3 -23.98 222.6 -25 226 C-25.58802387 227.79099332 -26.18792651 229.57822153 -26.80932617 231.35791016 C-27.13380737 232.29062744 -27.45828857 233.22334473 -27.79260254 234.18432617 C-28.12272339 235.12638916 -28.45284424 236.06845215 -28.79296875 237.0390625 C-29.10447876 237.93326904 -29.41598877 238.82747559 -29.73693848 239.7487793 C-30.88476803 243.04167563 -32.03634531 246.33326462 -33.1875 249.625 C-35.765625 257.00875 -38.34375 264.3925 -41 272 C-60.47 272 -79.94 272 -100 272 C-98.17367125 265.30346125 -96.3962704 258.95523738 -93.9453125 252.5234375 C-93.65188461 251.74055862 -93.35845673 250.95767975 -93.05613708 250.15107727 C-92.41876014 248.45184999 -91.77922239 246.75343194 -91.13772583 245.05575562 C-89.34315102 240.30539144 -87.56571342 235.54860062 -85.78515625 230.79296875 C-85.40288376 229.77336563 -85.02061127 228.75376251 -84.62675476 227.70326233 C-79.88664834 215.05054597 -75.22703283 202.36822204 -70.5625 189.6875 C-68.76723043 184.80978415 -66.97152208 179.93222987 -65.17578125 175.0546875 C-64.73671448 173.86195724 -64.29764771 172.66922699 -63.84527588 171.44035339 C-59.655757 160.06110815 -55.45492498 148.68605991 -51.25 137.3125 C-50.90522614 136.37986328 -50.56045227 135.44722656 -50.20523071 134.48632812 C-47.46368571 127.0704011 -44.72137701 119.65475656 -41.97900391 112.23913574 C-39.91627984 106.66125588 -37.85385423 101.0832658 -35.79174805 95.50515747 C-35.10063189 93.63586804 -34.40938965 91.76662522 -33.71801758 89.89743042 C-29.51746575 78.54072648 -25.32893542 67.17968009 -21.15615082 55.81274605 C-19.7257305 51.91693303 -18.29402475 48.02159211 -16.86241531 44.12621593 C-15.69988923 40.9624796 -14.53871346 37.79826151 -13.37927246 34.63339233 C-12.08329154 31.09588495 -10.78411813 27.55956399 -9.484375 24.0234375 C-8.91505249 22.46528572 -8.91505249 22.46528572 -8.33422852 20.87565613 C-5.73603727 13.81935119 -2.89824842 6.95579621 0 0 Z M34 56 C33.6619912 56.96764282 33.6619912 56.96764282 33.31715393 57.95483398 C30.63929283 65.62020878 27.95993541 73.28505984 25.27955627 80.94955444 C24.80311617 82.3119503 24.32670605 83.67435664 23.85032654 85.03677368 C18.54450978 100.21076193 13.23057254 115.38163733 7.85546875 130.53125 C7.26258812 132.2023584 7.26258812 132.2023584 6.6577301 133.90722656 C4.79799124 139.14636367 2.93504926 144.38434241 1.06860352 149.62109375 C0.40509999 151.48697537 -0.25839346 153.35286056 -0.921875 155.21875 C-1.22192947 156.05764771 -1.52198395 156.89654541 -1.83113098 157.76086426 C-2.24101509 158.9146759 -2.24101509 158.9146759 -2.65917969 160.09179688 C-2.89562195 160.75465698 -3.13206421 161.41751709 -3.37567139 162.10046387 C-4.01254674 164.0381738 -4.50530283 166.0212113 -5 168 C21.07 168 47.14 168 74 168 C73.3144934 164.57246698 72.63004905 161.66830277 71.50390625 158.4206543 C71.19786972 157.53317505 70.89183319 156.6456958 70.57652283 155.73132324 C70.24189529 154.77197876 69.90726776 153.81263428 69.5625 152.82421875 C69.21018814 151.80630249 68.85787628 150.78838623 68.49488831 149.73962402 C67.33344299 146.38768382 66.16695721 143.0375249 65 139.6875 C64.19254813 137.36306449 63.38517603 135.03860127 62.57788086 132.71411133 C56.94882506 116.52356695 51.27276203 100.34956972 45.5625 84.1875 C45.20051514 83.16103363 44.83853027 82.13456726 44.46557617 81.07699585 C43.43928651 78.16889194 42.40968552 75.26198391 41.37890625 72.35546875 C41.07964737 71.50666138 40.78038849 70.657854 40.47206116 69.7833252 C38.80827082 65.10691756 37.00711459 60.54005594 35 56 C34.67 56 34.34 56 34 56 Z " fill="#FFFFFF" transform="translate(1029,1343)"/>
<path d="M0 0 C15.40630889 13.37019665 26.584189 29.25996306 29 50 C21.6505717 51.85634002 14.29977763 53.70719326 6.94799805 55.55419922 C4.44605057 56.18346264 1.94442103 56.81399152 -0.55688477 57.44580078 C-4.1477755 58.35259856 -7.73977693 59.25487137 -11.33203125 60.15625 C-12.45398392 60.44060913 -13.57593658 60.72496826 -14.73188782 61.01794434 C-15.77274033 61.27821411 -16.81359283 61.53848389 -17.88598633 61.80664062 C-19.2616552 62.15305603 -19.2616552 62.15305603 -20.66511536 62.50646973 C-23 63 -23 63 -26 63 C-26.20753906 62.27296875 -26.41507813 61.5459375 -26.62890625 60.796875 C-30.3055503 48.79778564 -35.26688795 38.03670598 -46.41796875 31.60546875 C-60.12125351 24.41176253 -77.02292215 22.98675793 -92 27 C-99.72868802 29.78928573 -107.9694938 33.48242663 -112 41 C-115.11730683 48.34191956 -116.33451856 55.47732897 -113.8125 63.1875 C-109.37413374 73.63191235 -97.14261724 78.24822432 -87.29272461 82.34741211 C-79.69183904 85.36947799 -71.79593631 87.57752881 -63.96664429 89.92129517 C6.89956721 111.21009967 6.89956721 111.21009967 24.49609375 142.76953125 C27.07325417 148.30540571 28.62209171 154.06610461 30 160 C30.28810547 161.15628906 30.28810547 161.15628906 30.58203125 162.3359375 C33.89546185 183.45518672 28.87892465 204.34723602 17.01953125 221.9375 C0.89234013 243.05414146 -23.91244036 252.40256182 -49.375 256.25 C-67.86235793 258.47100523 -86.76230398 257.59975143 -105 254 C-105.680625 253.86609863 -106.36125 253.73219727 -107.0625 253.59423828 C-126.81947395 249.4865005 -144.4987917 239.87937261 -159 226 C-159.63808594 225.42507813 -160.27617188 224.85015625 -160.93359375 224.2578125 C-172.93095743 213.08877459 -179.77102211 196.8029977 -183 181 C-183 179.68 -183 178.36 -183 177 C-177.17018126 175.62616976 -171.3392523 174.25718237 -165.50732422 172.89233398 C-163.53078852 172.42908845 -161.554542 171.96460705 -159.57861328 171.4987793 C-147.76202274 168.7139968 -135.96086681 166.09228934 -124 164 C-123.70867187 165.11117188 -123.41734375 166.22234375 -123.1171875 167.3671875 C-119.23464641 181.65082646 -114.21048597 193.27807553 -101.14453125 201.2890625 C-86.66720609 209.16616613 -69.71785868 211.46977876 -53.5625 207.875 C-45.42440287 205.4256698 -38.12673399 202.51650443 -33.4375 195.125 C-29.42337239 187.38594705 -27.32159724 178.99688769 -29.72265625 170.41796875 C-34.1742523 158.39685716 -42.51763804 153.09558202 -53.75219727 147.67114258 C-65.80650836 142.23705225 -78.4793783 138.61574017 -91.10424805 134.75805664 C-114.24586574 127.66268769 -137.29100989 120.10868536 -155 103 C-156.04800781 102.11441406 -156.04800781 102.11441406 -157.1171875 101.2109375 C-168.01818315 91.58243161 -173.40617956 75.98987349 -174.30859375 61.82421875 C-175.08309633 42.6216058 -170.39067366 23.09271184 -157.4375 8.4375 C-155.97212713 6.94466699 -154.49405874 5.46412313 -153 4 C-152.42636719 3.36835937 -151.85273437 2.73671875 -151.26171875 2.0859375 C-116.57794069 -35.49505353 -37.04370014 -30.10703847 0 0 Z " fill="#FFFFFF" transform="translate(1372,1362)"/>
<path d="M0 0 C8.25 0 16.5 0 25 0 C25.60062256 2.35761475 26.20124512 4.71522949 26.82006836 7.14428711 C28.80060438 14.9163375 30.78495904 22.68740915 32.77121639 30.45799923 C33.97587225 35.17131884 35.17922232 39.88496394 36.37963867 44.59936523 C37.53721718 49.14533167 38.69815958 53.69042657 39.86148262 58.23492622 C40.30566987 59.97263261 40.74862483 61.71065446 41.19035149 63.44898796 C41.80719607 65.8756007 42.42833376 68.30107504 43.05053711 70.72631836 C43.2339566 71.45208069 43.4173761 72.17784302 43.60635376 72.92559814 C44.2589021 76.23825951 44.2589021 76.23825951 46 79 C46.28592514 78.02503067 46.57185028 77.05006134 46.86643982 76.04554749 C49.55580543 66.87670444 52.24855927 57.70886255 54.94467068 48.54200077 C56.33079931 43.82871459 57.71571372 39.11507859 59.09790039 34.40063477 C60.43075612 29.85461452 61.76673953 25.30952446 63.1049366 20.76507378 C63.61602353 19.02738942 64.12596471 17.28936768 64.63476372 15.55101204 C65.34523334 13.1243435 66.05969423 10.69888502 66.77514648 8.27368164 C66.98661819 7.54791931 67.1980899 6.82215698 67.41596985 6.07440186 C68.88594784 1.11405216 68.88594784 1.11405216 70 0 C71.4887186 -0.08669432 72.981445 -0.10703494 74.47265625 -0.09765625 C75.37177734 -0.09443359 76.27089844 -0.09121094 77.19726562 -0.08789062 C78.61555664 -0.07532227 78.61555664 -0.07532227 80.0625 -0.0625 C81.4865918 -0.05573242 81.4865918 -0.05573242 82.93945312 -0.04882812 C85.29303369 -0.03700109 87.64647581 -0.01968094 90 0 C93.37641741 9.90812114 96.49931202 19.85955655 99.390625 29.921875 C99.78436499 31.28338662 100.17839379 32.64481474 100.57269287 34.00616455 C101.59414521 37.53533577 102.61210851 41.06550288 103.62915039 44.59594727 C105.07306602 49.60564746 106.52192313 54.6139214 107.97015381 59.62237549 C108.7381923 62.27855615 109.50492039 64.93510946 110.27056885 67.59197998 C110.78680817 69.38094696 110.78680817 69.38094696 111.31347656 71.20605469 C111.61594299 72.25557312 111.91840942 73.30509155 112.2300415 74.38641357 C112.78448549 76.26844653 113.37956014 78.13868042 114 80 C121.09290775 53.35704375 128.17236438 26.71235085 135 0 C143.25 0 151.5 0 160 0 C158.75494266 6.84781537 157.4843349 13.45923311 155.70922852 20.15234375 C155.37952057 21.41572067 155.37952057 21.41572067 155.04315186 22.70462036 C154.32564855 25.44995518 153.60235858 28.19372748 152.87890625 30.9375 C152.37294266 32.86831828 151.86732852 34.79922817 151.36204529 36.73022461 C150.03690417 41.79031601 148.70675624 46.84907824 147.37561035 51.90759277 C146.29443729 56.01949148 145.21674341 60.13229806 144.13925266 64.24516296 C138.23638738 86.77647966 138.23638738 86.77647966 135.55168533 96.91436768 C135.04663537 98.82369617 134.54463156 100.73382975 134.04293823 102.64404297 C133.64257858 104.14862061 133.64257858 104.14862061 133.23413086 105.68359375 C133.01470322 106.5130249 132.79527557 107.34245605 132.56919861 108.19702148 C132 110 132 110 131 111 C128.78144736 111.08783542 126.56011504 111.10694609 124.33984375 111.09765625 C123.34314415 111.09553383 123.34314415 111.09553383 122.3263092 111.09336853 C120.19666101 111.08775518 118.06711661 111.07520054 115.9375 111.0625 C114.49674631 111.05748671 113.05599097 111.05292351 111.61523438 111.04882812 C108.07678898 111.03778145 104.53840461 111.02050792 101 111 C98.09166606 104.02183982 95.61230912 96.98512357 93.36328125 89.76953125 C92.87591743 88.2175428 92.87591743 88.2175428 92.37870789 86.63420105 C91.6986309 84.46419854 91.02058108 82.29355976 90.34448242 80.12231445 C89.31145414 76.80914568 88.26840071 73.49924463 87.22460938 70.18945312 C86.56189248 68.07050241 85.8997627 65.95136796 85.23828125 63.83203125 C84.92788406 62.84958939 84.61748688 61.86714752 84.29768372 60.85493469 C82.76171448 55.893055 81.54493693 51.16907772 81 46 C80.34 46 79.68 46 79 46 C78.75000244 47.21945312 78.50000488 48.43890625 78.24243164 49.6953125 C76.87013444 55.85747423 74.99328123 61.84948921 73.12109375 67.875 C72.56289696 69.6835144 72.56289696 69.6835144 71.99342346 71.52856445 C71.21097287 74.0604527 70.42713678 76.59185855 69.64086914 79.12255859 C68.6319389 82.37055916 67.62912189 85.62040998 66.62808132 88.87084961 C65.67053535 91.97736498 64.70813222 95.08237347 63.74609375 98.1875 C63.3856749 99.35716309 63.02525604 100.52682617 62.65391541 101.73193359 C62.32009354 102.8039502 61.98627167 103.8759668 61.64233398 104.98046875 C61.34858383 105.92817139 61.05483368 106.87587402 60.75218201 107.85229492 C60 110 60 110 59 111 C56.70848583 111.08790975 54.41427476 111.10694038 52.12109375 111.09765625 C51.09110008 111.09553383 51.09110008 111.09553383 50.04029846 111.09336853 C47.83932199 111.08775479 45.63844591 111.07520007 43.4375 111.0625 C41.94856917 111.05748676 40.45963676 111.05292355 38.97070312 111.04882812 C35.31376925 111.03778093 31.65689442 111.02050713 28 111 C25.52956014 101.62646762 23.06000594 92.25270243 20.59146881 82.87866879 C19.44419635 78.52211451 18.29666071 74.16562997 17.1484375 69.80932617 C14.51150149 59.80426452 11.87998316 49.7978037 9.25634766 39.78924561 C8.42595131 36.62193783 7.59351249 33.45517817 6.75927734 30.28887939 C5.79374122 26.62344003 4.83298894 22.95678063 3.87602234 19.28909492 C3.5249535 17.94675328 3.17221697 16.60484653 2.81770325 15.26341057 C2.33420469 13.43274362 1.85735691 11.60032395 1.38085938 9.76782227 C1.11253296 8.74423111 0.84420654 7.72063995 0.56774902 6.66603088 C0 4 0 4 0 0 Z " fill="#FFFFFF" transform="translate(1384,1697)"/>
<path d="M0 0 C7.92 0 15.84 0 24 0 C24 14.85 24 29.7 24 45 C38.85 45 53.7 45 69 45 C69 30.15 69 15.3 69 0 C76.92 0 84.84 0 93 0 C93 36.63 93 73.26 93 111 C85.08 111 77.16 111 69 111 C69 96.15 69 81.3 69 66 C54.15 66 39.3 66 24 66 C24 80.85 24 95.7 24 111 C16.08 111 8.16 111 0 111 C0 74.37 0 37.74 0 0 Z " fill="#FFFFFF" transform="translate(1694,1697)"/>
<path d="M0 0 C7.92 0 15.84 0 24 0 C24 14.85 24 29.7 24 45 C39.18 45 54.36 45 70 45 C69.67 39.39 69.34 33.78 69 28 C68.91850208 24.46922229 68.85740452 20.96539448 68.875 17.4375 C68.87113281 16.62732422 68.86726562 15.81714844 68.86328125 14.98242188 C68.87159881 9.82137765 69.34726445 5.22188442 70 0 C77.59 0 85.18 0 93 0 C93 36.63 93 73.26 93 111 C85.41 111 77.82 111 70 111 C69.35708993 105.21380939 68.87229643 100.00525138 68.8671875 94.26171875 C68.86623077 93.57366653 68.86527405 92.88561432 68.86428833 92.17671204 C68.86361491 90.74077257 68.86540987 89.30482991 68.86962891 87.86889648 C68.87503103 85.67489855 68.86963427 83.48110144 68.86328125 81.28710938 C68.86394138 79.88281205 68.86522118 78.47851485 68.8671875 77.07421875 C68.86831543 75.81182373 68.86944336 74.54942871 68.87060547 73.2487793 C69 70 69 70 70 66 C54.82 66 39.64 66 24 66 C24 80.85 24 95.7 24 111 C16.08 111 8.16 111 0 111 C0 74.37 0 37.74 0 0 Z " fill="#FFFFFF" transform="translate(929,1697)"/>
<path d="M0 0 C56.95 0 56.95 0 66.9765625 8.71875 C73.67235274 15.67097476 76.17881762 23.52027522 76.5 33.0625 C76.23691453 41.63156963 73.92612034 48.69348681 68 55 C65.67983302 56.49326945 63.25362372 57.65991713 60.75 58.8125 C59.77546875 59.27946289 59.77546875 59.27946289 58.78125 59.75585938 C57.19278029 60.51505446 55.59708737 61.25910519 54 62 C55.08427234 63.6264085 56.16856556 65.25280309 57.25292969 66.87915039 C58.26950484 68.40417891 59.28577022 69.92941397 60.30175781 71.45483398 C63.48778038 76.23707401 66.67903318 81.01575 69.87713623 85.78991699 C71.71059996 88.5276004 73.54221826 91.26651599 75.37365723 94.0055542 C76.29332889 95.38000452 77.2138245 96.75390386 78.13513184 98.1272583 C79.4411488 100.07432668 80.7443079 102.02327888 82.046875 103.97265625 C82.44632324 104.56666733 82.84577148 105.16067841 83.25732422 105.77268982 C86 109.88613134 86 109.88613134 86 111 C81.45943197 111.26200753 76.92080597 111.42142326 72.375 111.5625 C71.08980469 111.63791016 69.80460937 111.71332031 68.48046875 111.79101562 C59.27155343 112.00573127 59.27155343 112.00573127 56.0637207 109.46850586 C54.42888977 107.07010119 53.23915367 104.62556203 52 102 C50.99920797 100.29267083 49.99728712 98.58588517 48.97479248 96.89146423 C47.8566231 95.03456289 46.76204928 93.16560777 45.67382812 91.29101562 C45.30588135 90.65719971 44.93793457 90.02338379 44.55883789 89.37036133 C44.18879639 88.73251709 43.81875488 88.09467285 43.4375 87.4375 C41.95869013 84.8935625 40.47788352 82.35079647 38.99609375 79.80859375 C38.64598236 79.20639008 38.29587097 78.6041864 37.93515015 77.98373413 C36.01137798 74.68641967 34.03237962 71.43657871 31.97265625 68.22265625 C30 65 30 65 30 63 C28.02 63 26.04 63 24 63 C24 78.84 24 94.68 24 111 C16.08 111 8.16 111 0 111 C0 74.37 0 37.74 0 0 Z M24 20 C24 28.58 24 37.16 24 46 C37.69590078 46.57172775 37.69590078 46.57172775 50.0625 42 C53.52291507 38.42795864 53.39931113 35.35291232 53.34375 30.546875 C52.77048316 26.29948884 51.22266721 24.80231932 48 22 C42.851264 19.72028858 38.13523903 19.76164536 32.625 19.875 C29.77875 19.91625 26.9325 19.9575 24 20 Z " fill="#FFFFFF" transform="translate(1252,1697)"/>
<path d="M0 0 C9.57 0 19.14 0 29 0 C31.68954411 6.05147426 34.20889606 12.01740738 36.4765625 18.21875 C36.96126762 19.5328611 36.96126762 19.5328611 37.45576477 20.8735199 C38.51513212 23.74793506 39.57017176 26.62391633 40.625 29.5 C41.36769527 31.51904424 42.1106194 33.53800431 42.85375977 35.55688477 C44.42151873 39.8174488 45.98741854 44.07869053 47.55224609 48.34033203 C49.62557023 53.9846761 51.7061524 59.62631421 53.78924561 65.26705933 C55.44119049 69.74091354 57.09089786 74.21559081 58.74017334 78.69042969 C59.53471203 80.8451658 60.32999324 82.99962828 61.1260376 85.15380859 C62.24142309 88.17325734 63.35352962 91.19389457 64.46484375 94.21484375 C64.79430496 95.10457382 65.12376617 95.99430389 65.46321106 96.91099548 C65.76917709 97.74466141 66.07514313 98.57832733 66.39038086 99.43725586 C66.65443222 100.15344589 66.91848358 100.86963593 67.1905365 101.60752869 C68.23786401 104.70303705 69.10224317 107.85785111 70 111 C61.75 111 53.5 111 45 111 C43.2675 106.111875 43.2675 106.111875 41.5 101.125 C41.13455078 100.09906738 40.76910156 99.07313477 40.39257812 98.01611328 C39.9662207 96.80544189 39.9662207 96.80544189 39.53125 95.5703125 C39.23798828 94.74289551 38.94472656 93.91547852 38.64257812 93.06298828 C38 91 38 91 38 89 C22.82 89.33 7.64 89.66 -8 90 C-10.31 96.6 -12.62 103.2 -15 110 C-16 111 -16 111 -18.31665039 111.11352539 C-19.31688232 111.10828857 -20.31711426 111.10305176 -21.34765625 111.09765625 C-22.42724609 111.09443359 -23.50683594 111.09121094 -24.61914062 111.08789062 C-25.75544922 111.07951172 -26.89175781 111.07113281 -28.0625 111.0625 C-29.20267578 111.05798828 -30.34285156 111.05347656 -31.51757812 111.04882812 C-34.34510351 111.03699747 -37.1725264 111.0205141 -40 111 C-37.42247488 101.75744592 -34.13111532 92.76856485 -30.875 83.75 C-30.5764209 82.92039764 -30.2778418 82.09079529 -29.97021484 81.23605347 C-20.19544674 54.07909423 -10.15337028 27.01748374 0 0 Z M14 25 C11.85934599 30.94324022 9.72360169 36.88822766 7.59130859 42.83447266 C6.86490794 44.85831912 6.13737222 46.88175855 5.40869141 48.90478516 C4.36324199 51.80786307 3.32184489 54.71236654 2.28125 57.6171875 C1.95314331 58.52556366 1.62503662 59.43393982 1.2869873 60.36984253 C0.83652039 61.63092331 0.83652039 61.63092331 0.37695312 62.91748047 C0.11047974 63.65916473 -0.15599365 64.400849 -0.43054199 65.16500854 C-1.09879624 66.99813556 -1.09879624 66.99813556 -1 69 C9.56 69 20.12 69 31 69 C25.23220294 51.47299484 25.23220294 51.47299484 19.125 34.0625 C18.83939209 33.25901123 18.55378418 32.45552246 18.25952148 31.62768555 C17.04718401 27.5810339 17.04718401 27.5810339 14 25 Z " fill="#FFFFFF" transform="translate(1166,1697)"/>
<path d="M0 0 C7.92 0 15.84 0 24 0 C24.01458252 2.18931152 24.02916504 4.37862305 24.04418945 6.63427734 C24.09471192 13.89868537 24.16133729 21.16288302 24.23571491 28.42708397 C24.28028615 32.82783523 24.31957079 37.22849674 24.34643555 41.62939453 C24.37260156 45.88303762 24.41309605 50.13633283 24.46318626 54.38975906 C24.47976563 56.00586213 24.49133516 57.62202524 24.49761391 59.23820114 C24.04981857 73.21829363 24.04981857 73.21829363 29.34516907 85.63217163 C34.34968392 90.10672973 39.12454469 91.41719888 45.65625 91.25390625 C50.43553542 90.73615033 54.34975142 89.11503282 58.3125 86.4375 C64.29297039 77.79904277 63.47267346 66.886353 63.51171875 56.8359375 C63.52859271 55.1911182 63.54674654 53.54631158 63.56611633 51.90151978 C63.6133279 47.60430872 63.6433228 43.30714911 63.66955566 39.00976562 C63.69950793 34.61187588 63.74598732 30.2141629 63.79101562 25.81640625 C63.8767201 17.21101037 63.94267979 8.6056318 64 0 C71.92 0 79.84 0 88 0 C88.06809443 9.81502592 88.12299854 19.62989193 88.15543652 29.44510174 C88.1710143 34.00393725 88.19210626 38.56260112 88.22631836 43.12133789 C88.25919596 47.53043591 88.27691213 51.93937006 88.28463173 56.34858131 C88.29012476 58.02088814 88.3008494 59.69318719 88.31719017 61.3654232 C88.45445605 76.01068069 87.79727093 90.43864685 77.3359375 101.80859375 C67.16780997 111.11776986 54.43975784 113.30370947 41.0859375 113.15234375 C29.40992989 112.57593325 18.60001982 109.18271928 10 101 C2.09231574 91.35691897 -0.17730819 81.4639265 -0.11352539 69.13696289 C-0.11374443 68.00889221 -0.11374443 68.00889221 -0.1139679 66.85803223 C-0.11327662 64.39620989 -0.10552131 61.93446521 -0.09765625 59.47265625 C-0.09578928 57.7563023 -0.09436669 56.03994781 -0.09336853 54.32359314 C-0.08956533 49.82407133 -0.07975398 45.32458221 -0.06866455 40.82507324 C-0.05840302 36.22648562 -0.05386078 31.62789267 -0.04882812 27.02929688 C-0.03812959 18.01951463 -0.02055075 9.00976516 0 0 Z " fill="#FFFFFF" transform="translate(1853,1697)"/>
<path d="M0 0 C6.84445374 5.01425183 11.49895858 11.02940641 14.0625 19.1875 C14.0625 20.5075 14.0625 21.8275 14.0625 23.1875 C10.79311914 24.02660389 7.52177466 24.85778333 4.25 25.6875 C3.32123047 25.92597656 2.39246094 26.16445312 1.43554688 26.41015625 C0.54287109 26.63574219 -0.34980469 26.86132812 -1.26953125 27.09375 C-2.09171143 27.30322266 -2.9138916 27.51269531 -3.76098633 27.72851562 C-5.9375 28.1875 -5.9375 28.1875 -8.9375 28.1875 C-9.16824219 27.58421875 -9.39898438 26.9809375 -9.63671875 26.359375 C-12.1791075 20.12901521 -14.42461815 16.74878082 -20.75 13.9375 C-27.67259897 12.30865318 -33.66328967 12.80693878 -39.9375 16.1875 C-43.06604993 18.73858394 -43.5374533 21.08377798 -44.21484375 25.0546875 C-43.79084602 28.31528977 -42.18434192 29.85673529 -39.9375 32.1875 C-37.76240288 33.57131779 -37.76240288 33.57131779 -35.1875 34.5 C-34.14464844 34.90992188 -33.10179687 35.31984375 -32.02734375 35.7421875 C-28.75289732 36.93150319 -25.44535866 38.00432892 -22.12890625 39.0703125 C-21.08250977 39.40893311 -20.03611328 39.74755371 -18.95800781 40.09643555 C-16.86166604 40.76857313 -14.76083725 41.42691469 -12.65527344 42.06958008 C-2.50231588 45.29939296 5.98520322 50.22801639 12.0625 59.1875 C16.15608395 67.11244544 16.12968277 75.94700889 13.875 84.4375 C10.92081213 93.041402 6.06199766 97.9227447 -1.9375 102.1875 C-17.30880119 108.88179761 -34.23751508 109.12428635 -50 103.5 C-59.78128381 99.32337646 -66.90110574 92.55995727 -70.96875 82.68359375 C-72.9375 77.00520833 -72.9375 77.00520833 -72.9375 74.1875 C-69.71080584 73.34438881 -66.48079082 72.51476132 -63.25 71.6875 C-61.88198242 71.32978516 -61.88198242 71.32978516 -60.48632812 70.96484375 C-59.15698242 70.62646484 -59.15698242 70.62646484 -57.80078125 70.28125 C-56.98907471 70.07177734 -56.17736816 69.86230469 -55.34106445 69.64648438 C-52.818507 69.16477711 -50.49941817 69.10775157 -47.9375 69.1875 C-47.71835938 69.85136719 -47.49921875 70.51523438 -47.2734375 71.19921875 C-45.10806513 77.22881254 -43.37528569 80.70731716 -37.9375 84.1875 C-31.48625906 86.73546911 -23.48996136 87.90206337 -16.83203125 85.39453125 C-14.16243114 83.67412229 -12.70042952 81.83189428 -10.9375 79.1875 C-10.61449385 75.18222374 -10.57415107 72.30350028 -11.8125 68.5 C-18.84727315 60.84451157 -31.45966932 58.59445216 -41.03710938 55.66992188 C-51.82760511 52.2352007 -61.17246958 47.50825388 -66.96875 37.38671875 C-70.40644206 29.69965734 -69.87471411 21.15463361 -67.25 13.3125 C-63.28571389 3.80366253 -57.17164507 -0.48015624 -47.9375 -4.8125 C-32.55783453 -9.69134346 -13.81060479 -8.50058678 0 0 Z " fill="#FFFFFF" transform="translate(2029.9375,1702.8125)"/>
<path d="M0 0 C21.45 0 42.9 0 65 0 C65 6.93 65 13.86 65 21 C51.47 21 37.94 21 24 21 C24 28.92 24 36.84 24 45 C35.88 45 47.76 45 60 45 C60 51.93 60 58.86 60 66 C48.12 66 36.24 66 24 66 C24 73.92 24 81.84 24 90 C37.53 90 51.06 90 65 90 C65 96.93 65 103.86 65 111 C43.55 111 22.1 111 0 111 C0 74.37 0 37.74 0 0 Z " fill="#FFFFFF" transform="translate(1050,1697)"/>
<path d="M0 0 C4.0239049 0.51814666 5.96150055 2.70107818 8.6015625 5.5546875 C9.1181543 6.09424072 9.63474609 6.63379395 10.16699219 7.18969727 C33.62804064 32.15936746 51.85027371 68.35681124 50.8515625 103.3671875 C44.77622122 98.40266811 39.34801855 92.87880598 33.86553955 87.28439331 C25.01767621 78.27809809 16.16983836 69.69302221 5.8515625 62.3671875 C5.08457031 61.77035156 4.31757812 61.17351562 3.52734375 60.55859375 C-20.98347785 42.03645457 -51.98264246 33.26275808 -82.1484375 30.3671875 C-61.88130734 8.33939932 -28.02634664 3.26858137 0 0 Z " fill="#FFFFFF" transform="translate(1576.1484375,1338.6328125)"/>
<path d="M0 0 C27.64075182 1.3288823 53.45930261 15.20026383 74 33 C75.08023437 33.70640625 76.16046875 34.4128125 77.2734375 35.140625 C80.656948 38.68894833 80.67748627 40.45379592 80.63037109 45.19287109 C80.58734863 46.09859863 80.54432617 47.00432617 80.5 47.9375 C80.47373535 48.88189941 80.4474707 49.82629883 80.42041016 50.79931641 C79.20458154 85.54829137 66.00299064 121.31676064 41 146 C40.99413376 145.37820358 40.98826752 144.75640717 40.98222351 144.11576843 C40.91743719 137.54345675 40.83281954 130.97159701 40.73754883 124.3996582 C40.7046424 121.95896427 40.67650841 119.51820049 40.65356445 117.07739258 C40.47888505 98.97391606 39.83626243 81.25448311 34.25 63.875 C33.99323486 63.05354492 33.73646973 62.23208984 33.47192383 61.38574219 C26.3959406 39.29590582 15.6896201 20.79367522 1.25 2.6796875 C0 1 0 1 0 0 Z " fill="#FFFFFF" transform="translate(1598,1341)"/>
<path d="M0 0 C3.8604794 3.58956857 6.70835774 7.31461201 9.375 11.875 C9.76075195 12.52992432 10.14650391 13.18484863 10.54394531 13.85961914 C19.76265641 29.78302041 26.07149816 46.62523133 28.69042969 64.88330078 C28.90507471 66.35094461 29.14165582 67.81548281 29.39550781 69.27685547 C31.59005472 82.34884021 31.59005472 82.34884021 28.0625 88.23046875 C25.23752189 91.14167439 22.2471338 93.59372704 19 96 C17.91530774 96.87531991 16.83457141 97.75556427 15.7578125 98.640625 C-6.19425923 116.41747936 -31.82205668 127.47904986 -59.6875 131.8125 C-60.54931885 131.94865723 -61.4111377 132.08481445 -62.29907227 132.22509766 C-63.11174561 132.34288574 -63.92441895 132.46067383 -64.76171875 132.58203125 C-65.843927 132.74022339 -65.843927 132.74022339 -66.94799805 132.90161133 C-69.17085295 133.008192 -70.86394835 132.57762046 -73 132 C-72.09870361 131.11965088 -71.19740723 130.23930176 -70.26879883 129.33227539 C-66.84915763 125.98637711 -63.44387634 122.62615228 -60.04223633 119.26196289 C-58.58275364 117.8222958 -57.11966782 116.38627011 -55.65258789 114.9543457 C-42.79462115 102.39632467 -30.80846413 89.13647621 -22.0625 73.3125 C-21.61632324 72.52198242 -21.17014648 71.73146484 -20.71044922 70.91699219 C-8.45009492 48.82779388 -2.40258361 24.97422437 0 0 Z " fill="#FFFFFF" transform="translate(1690,1394)"/>
<path d="M0 0 C-4.9228447 5.96220144 -10.29858085 11.33638045 -15.8125 16.75 C-22.66658449 23.55237878 -29.22113657 30.24952434 -35 38 C-35.87172912 39.12031077 -36.74417505 40.24006399 -37.6171875 41.359375 C-57.8430096 67.6825838 -68.6827177 98.12573242 -72 131 C-72.99 131 -73.98 131 -75 131 C-76.56385535 129.02590252 -77.87420504 127.13424619 -79.1875 125 C-79.57969727 124.37279053 -79.97189453 123.74558105 -80.37597656 123.09936523 C-92.41491455 103.47918935 -98.91998935 82.74885059 -102 60 C-102.18304687 59.05898437 -102.36609375 58.11796875 -102.5546875 57.1484375 C-103.01015643 53.20474312 -103.16187781 49.83049014 -100.96142578 46.36376953 C-97.46525526 42.05793255 -93.28473002 38.49563926 -89 35 C-88.4013916 34.51112305 -87.8027832 34.02224609 -87.18603516 33.51855469 C-82.93776695 30.12132958 -78.53382169 27.0031246 -74 24 C-73.34547852 23.56558594 -72.69095703 23.13117188 -72.01660156 22.68359375 C-51.41816819 9.26507128 -24.886558 -0.63811687 0 0 Z " fill="#FFFFFF" transform="translate(1542,1432)"/>
<path d="M0 0 C0.8254834 0.07541016 1.6509668 0.15082031 2.50146484 0.22851562 C34.44666767 3.44451683 66.40315735 15.67579605 90 38 C90 38.33 90 38.66 90 39 C89.45115143 39.00808685 88.90230286 39.01617371 88.33682251 39.02450562 C82.52708098 39.11182 76.71763238 39.21134595 70.90820312 39.31738281 C68.75167839 39.35522783 66.59510001 39.39015023 64.43847656 39.421875 C39.42602377 39.7906587 39.42602377 39.7906587 14.875 44.25 C14.04645508 44.46615967 13.21791016 44.68231934 12.36425781 44.9050293 C-11.45989416 51.31834468 -32.29766486 62.86851152 -51.55078125 78.12890625 C-54 80 -54 80 -55 80 C-53.94856028 54.71287481 -41.61832135 28.30424955 -25.01953125 9.38671875 C-22.98453214 7.12160986 -22.98453214 7.12160986 -21.69921875 4.76953125 C-17.07881872 -2.7706004 -7.68351297 -0.70966727 0 0 Z " fill="#FFFFFF" transform="translate(1497,1381)"/>
<path d="M0 0 C0.33 0 0.66 0 1 0 C1.02505615 0.99104736 1.0501123 1.98209473 1.07592773 3.00317383 C1.33889629 13.30886817 1.62381524 23.61378999 1.93682861 33.91809082 C1.9912207 35.71066492 2.04431887 37.50327819 2.09716797 39.29589844 C3.23014185 75.05178598 14.95538178 108.20276848 37.02734375 136.421875 C39.15890316 139.20767541 41.08160216 142.06446504 43 145 C16.7309493 143.76380938 -9.20665523 130.66671981 -29 114 C-30.04909546 113.27828613 -30.04909546 113.27828613 -31.11938477 112.54199219 C-34.32444756 110.16986953 -36.61987986 108.40555108 -37.68554688 104.46508789 C-37.90008151 101.47800546 -37.85141633 98.61517402 -37.6875 95.625 C-37.65479004 94.55862305 -37.62208008 93.49224609 -37.58837891 92.39355469 C-36.19206377 57.89574652 -22.39660301 26.01420313 0 0 Z " fill="#FFFFFF" transform="translate(1519,1473)"/>
<path d="M0 0 C5.7764029 4.78020507 11.00324724 9.96225167 16.25 15.3125 C22.89214408 22.01370512 29.51051754 28.25585416 37 34 C38.073009 34.88214693 39.14314975 35.76779019 40.2109375 36.65625 C48.59501551 43.56303103 57.33689836 49.05503249 67 54 C67.61987793 54.31952637 68.23975586 54.63905273 68.87841797 54.96826172 C89.11577989 65.26182017 111.28200753 71.15703182 134 72 C116.19587199 90.78417175 84.82101828 99.27126226 60 102 C59.00355469 102.15984375 58.00710938 102.3196875 56.98046875 102.484375 C52.22086884 102.93703625 49.17427804 102.81420936 45.171875 100.0390625 C42.22493128 97.16789733 39.60014926 94.18127145 37 91 C36.07313406 89.91648066 35.14604957 88.83314824 34.21875 87.75 C14.54675462 64.22014223 0 31.10286697 0 0 Z " fill="#FFFFFF" transform="translate(1532,1517)"/>
<path d="M0 0 C-0.75150447 15.53109233 -6.27849562 30.13805577 -13 44 C-13.78310547 45.64548828 -13.78310547 45.64548828 -14.58203125 47.32421875 C-17.84085329 53.77050176 -21.69998767 59.59270808 -26 65.375 C-26.48621826 66.02919922 -26.97243652 66.68339844 -27.47338867 67.35742188 C-28.94053478 69.27740898 -30.45015533 71.14620238 -32 73 C-32.82334839 73.99507568 -32.82334839 73.99507568 -33.66333008 75.01025391 C-36.64643547 78.33117253 -38.23489939 79.83680008 -42.69921875 80.7890625 C-44.67341797 80.70785156 -44.67341797 80.70785156 -46.6875 80.625 C-47.41807617 80.59680176 -48.14865234 80.56860352 -48.90136719 80.53955078 C-83.73912861 78.76751606 -119.34777011 66.26873884 -145 42 C-145 41.67 -145 41.34 -145 41 C-144.45115143 40.99191315 -143.90230286 40.98382629 -143.33682251 40.97549438 C-137.52708098 40.88818 -131.71763238 40.78865405 -125.90820312 40.68261719 C-123.75167839 40.64477217 -121.59510001 40.60984977 -119.43847656 40.578125 C-94.42602377 40.2093413 -94.42602377 40.2093413 -69.875 35.75 C-69.04645508 35.53384033 -68.21791016 35.31768066 -67.36425781 35.0949707 C-49.79776967 30.36617999 -33.66442161 22.96876959 -18.5 12.9375 C-17.77055176 12.45522949 -17.04110352 11.97295898 -16.28955078 11.47607422 C-11.75687978 8.39792479 -7.66395383 5.04934734 -3.64648438 1.32250977 C-2 0 -2 0 0 0 Z " fill="#FFFFFF" transform="translate(1718,1498)"/>
<path d="M0 0 C25.08 0 50.16 0 76 0 C76 6.93 76 13.86 76 21 C67.42 21 58.84 21 50 21 C50 50.7 50 80.4 50 111 C42.08 111 34.16 111 26 111 C26 81.3 26 51.6 26 21 C17.42 21 8.84 21 0 21 C0 14.07 0 7.14 0 0 Z " fill="#FFFFFF" transform="translate(1601,1697)"/>
<path d="M0 0 C7.92 0 15.84 0 24 0 C24 36.63 24 73.26 24 111 C16.08 111 8.16 111 0 111 C0 74.37 0 37.74 0 0 Z " fill="#FFFFFF" transform="translate(1561,1697)"/>
<path d="" fill="#FFFFFF" transform="translate(0,0)"/>
<path d="" fill="#FFFFFF" transform="translate(0,0)"/>
</svg>
